<?xml version="1.0" encoding="UTF-8" standalone="no"?>
<!-- Generator: Adobe Illustrator 19.2.1, SVG Export Plug-In . SVG Version: 6.00 Build 0)  -->
<svg xmlns:dc="http://purl.org/dc/elements/1.1/" xmlns:cc="http://creativecommons.org/ns#" xmlns:rdf="http://www.w3.org/1999/02/22-rdf-syntax-ns#" xmlns:svg="http://www.w3.org/2000/svg" xmlns="http://www.w3.org/2000/svg" xmlns:sodipodi="http://sodipodi.sourceforge.net/DTD/sodipodi-0.dtd" xmlns:inkscape="http://www.inkscape.org/namespaces/inkscape" version="1.1" id="Layer_1" x="0px" y="0px" viewBox="0 0 252.7 115.4" xml:space="preserve" sodipodi:docname="ansat3.svg" width="252.7" height="115.4" inkscape:version="0.92.2 (5c3e80d, 2017-08-06)"><metadata id="metadata4957"><rdf:RDF><cc:Work rdf:about=""><dc:format>image/svg+xml</dc:format><dc:type rdf:resource="http://purl.org/dc/dcmitype/StillImage"/><dc:title/></cc:Work></rdf:RDF></metadata><defs id="defs4955"/><sodipodi:namedview pagecolor="#ffffff" bordercolor="#666666" borderopacity="1" objecttolerance="10" gridtolerance="10" guidetolerance="10" inkscape:pageopacity="0" inkscape:pageshadow="2" inkscape:window-width="1600" inkscape:window-height="845" id="namedview4953" showgrid="false" inkscape:zoom="0.69775391" inkscape:cx="-396.20776" inkscape:cy="-344.81759" inkscape:window-x="0" inkscape:window-y="27" inkscape:window-maximized="1" inkscape:current-layer="Layer_1"/><style type="text/css" id="style4356">
	.st0{fill:#DFEDF7;}
	.st1{fill:#92C2E2;}
	.st2{fill:#0071BC;}
	.st3{fill:#8CC63F;}
	.st4{fill:#FFFFFF;}
	.st5{font-family:'HelveticaNeue';}
	.st6{font-size:22px;}
	.st7{font-size:27px;}
	.st8{font-family:'HelveticaNeue-Bold';}
	.st9{font-size:32px;}
	.st10{fill:none;stroke:#0071BC;stroke-width:2;stroke-miterlimit:10;}
	.st11{fill:#FFFFFF;stroke:#0071BC;stroke-width:2;stroke-miterlimit:10;}
	.st12{fill:none;stroke:#0071BC;stroke-width:2;stroke-linecap:round;stroke-linejoin:round;stroke-miterlimit:10;}
	.st13{fill:none;stroke:#0071BC;stroke-width:2;stroke-linejoin:round;stroke-miterlimit:10;}
	.st14{fill:none;stroke:#0071BC;stroke-width:4;stroke-miterlimit:10;}
	.st15{fill:#FFFFFF;stroke:#0071BC;stroke-width:2;stroke-linecap:round;stroke-linejoin:round;stroke-miterlimit:10;}
	.st16{fill:none;stroke:#0071BC;stroke-width:2;stroke-linecap:round;stroke-linejoin:round;}
	.st17{fill:none;stroke:#0071BC;stroke-width:2;stroke-linecap:round;stroke-linejoin:round;stroke-dasharray:6.0308,6.0308;}
	.st18{fill:none;stroke:#0071BC;stroke-width:2;stroke-linecap:round;stroke-linejoin:round;stroke-dasharray:5.945,5.945;}
	.st19{fill:none;stroke:#0071BC;stroke-width:2;stroke-linecap:round;stroke-linejoin:round;stroke-dasharray:5.7912,5.7912;}
	.st20{fill:none;stroke:#0071BC;stroke-width:2;stroke-linecap:round;stroke-linejoin:round;stroke-dasharray:6,6;}
	.st21{fill:none;stroke:#0071BC;stroke-width:2;stroke-miterlimit:10;stroke-dasharray:6,6;}
	.st22{font-size:21px;}
	.st23{fill:none;}
	.st24{font-family:'MyriadPro-Regular';}
	.st25{font-family:'MyriadPro-Bold';}
</style><g id="g4430" transform="translate(-1459.7,-23.1)"><g id="g4426" style="fill:#99cccc;fill-opacity:1"><path class="st4" d="m 1483.2,75.1 h 14 l 23.2,62 h -14.2 l -4.7,-13.8 h -23.2 l -4.9,13.8 h -13.7 z m 14.7,38.1 -7.8,-22.7 h -0.2 l -8.1,22.7 z" id="path4416" inkscape:connector-curvature="0" style="fill:#99cccc;fill-opacity:1"/><path class="st4" d="m 1521.4,92.2 h 12.3 v 16.3 h 17.5 V 92.2 h 12.3 v 44.9 h -12.3 v -18.8 h -17.5 v 18.8 h -12.3 z" id="path4418" inkscape:connector-curvature="0" style="fill:#99cccc;fill-opacity:1"/><path class="st4" d="m 1597.6,138.5 c -4.8,0 -9.1,-0.8 -12.8,-2.5 -3.8,-1.6 -6.9,-3.9 -9.6,-6.8 -2.6,-2.9 -4.6,-6.3 -6,-10.2 -1.4,-3.9 -2.1,-8.1 -2.1,-12.6 0,-4.6 0.7,-8.9 2.1,-12.8 1.4,-4 3.4,-7.5 6,-10.4 2.6,-3 5.8,-5.3 9.6,-6.9 3.8,-1.7 8,-2.5 12.8,-2.5 3.4,0 6.6,0.5 9.6,1.5 3.1,1 5.8,2.4 8.2,4.3 2.4,1.9 4.4,4.2 5.9,7 1.6,2.8 2.5,6 3,9.6 h -13.2 c -0.2,-1.6 -0.8,-3 -1.6,-4.3 -0.8,-1.3 -1.8,-2.4 -3,-3.4 -1.2,-1 -2.6,-1.8 -4.1,-2.3 -1.5,-0.5 -3.1,-0.8 -4.8,-0.8 -3.1,0 -5.7,0.6 -7.8,1.8 -2.1,1.2 -3.9,2.8 -5.2,4.8 -1.3,2 -2.3,4.3 -2.9,6.8 -0.6,2.5 -0.9,5.2 -0.9,7.9 0,2.6 0.3,5.1 0.9,7.6 0.6,2.5 1.6,4.7 2.9,6.6 1.3,2 3.1,3.5 5.2,4.7 2.1,1.2 4.7,1.8 7.8,1.8 4.2,0 7.4,-1.3 9.8,-3.8 2.3,-2.5 3.8,-5.9 4.3,-10.1 h 13.2 c -0.3,3.9 -1.2,7.5 -2.7,10.5 -1.4,3.1 -3.4,5.7 -5.7,7.9 -2.4,2.2 -5.2,3.9 -8.3,5 -3.3,1 -6.8,1.6 -10.6,1.6 z" id="path4420" inkscape:connector-curvature="0" style="fill:#99cccc;fill-opacity:1"/><path class="st4" d="m 1641,138.2 c -2.1,0 -4.1,-0.3 -6,-0.8 -1.9,-0.5 -3.5,-1.3 -4.9,-2.4 -1.4,-1.1 -2.5,-2.5 -3.3,-4.2 -0.8,-1.7 -1.2,-3.7 -1.2,-6 0,-2.5 0.4,-4.6 1.3,-6.3 0.9,-1.6 2.1,-3 3.5,-4 1.4,-1 3,-1.7 4.9,-2.2 1.8,-0.5 3.7,-0.9 5.5,-1.2 1.9,-0.3 3.7,-0.5 5.5,-0.7 1.8,-0.2 3.4,-0.4 4.8,-0.8 1.4,-0.3 2.5,-0.9 3.3,-1.5 0.8,-0.7 1.2,-1.6 1.1,-2.9 0,-1.3 -0.2,-2.3 -0.7,-3.1 -0.4,-0.8 -1,-1.4 -1.7,-1.9 -0.7,-0.4 -1.6,-0.7 -2.5,-0.9 -1,-0.1 -2,-0.2 -3.1,-0.2 -2.4,0 -4.3,0.5 -5.7,1.6 -1.4,1 -2.2,2.8 -2.4,5.2 h -12.3 c 0.2,-2.8 0.9,-5.2 2.2,-7.2 1.3,-1.9 2.9,-3.5 4.9,-4.6 2,-1.2 4.2,-2 6.6,-2.5 2.4,-0.5 4.9,-0.7 7.5,-0.7 2.3,0 4.5,0.2 6.9,0.5 2.3,0.3 4.4,0.9 6.3,1.9 1.9,0.9 3.5,2.2 4.7,3.9 1.2,1.7 1.8,3.8 1.8,6.5 v 23.4 c 0,2 0.1,4 0.3,5.8 0.2,1.9 0.6,3.2 1.2,4.2 H 1657 c -0.2,-0.7 -0.4,-1.4 -0.6,-2.1 -0.1,-0.7 -0.2,-1.5 -0.3,-2.2 -2,2 -4.3,3.4 -6.9,4.3 -2.7,0.7 -5.4,1.1 -8.2,1.1 z m 4.6,-8.1 c 2.4,0 4.3,-0.4 5.6,-1.2 1.3,-0.8 2.3,-1.8 3,-2.9 0.6,-1.1 1,-2.3 1.2,-3.4 0.1,-1.2 0.2,-2.1 0.2,-2.8 v -4.6 c -0.5,0.5 -1.2,0.8 -1.9,1.1 -0.8,0.3 -1.6,0.5 -2.5,0.7 -0.9,0.2 -1.9,0.3 -2.9,0.4 -1,0.1 -2,0.3 -3,0.4 -1,0.2 -1.9,0.4 -2.8,0.7 -0.9,0.3 -1.6,0.7 -2.3,1.2 -0.7,0.5 -1.2,1.1 -1.6,1.9 -0.4,0.8 -0.6,1.7 -0.6,2.9 0,1.2 0.2,2.1 0.6,2.8 0.4,0.7 1,1.3 1.6,1.7 0.7,0.4 1.5,0.7 2.4,0.9 1.1,0.1 2,0.2 3,0.2 z" id="path4422" inkscape:connector-curvature="0" style="fill:#99cccc;fill-opacity:1"/><path class="st4" d="m 1685.4,101.5 h -14.8 v -9.3 h 41.8 v 9.3 h -14.8 v 35.6 h -12.3 v -35.6 z" id="path4424" inkscape:connector-curvature="0" style="fill:#99cccc;fill-opacity:1"/></g><path class="st4" d="m 1553.6,79 -2.4,-4 h -17.1 l -2.4,4 h -5.9 l -2.9,-3.9 2.4,-4.8 -8.6,-15.2 h -4.8 l -2.9,-4.5 2.9,-4.5 h 4.8 l 8.6,-14.3 -2.4,-4 2.9,-4.7 h 5.9 l 2.4,3 h 17.1 l 2.4,-3 h 5.9 l 2.9,5.1 -2.4,3.6 8.6,14.3 h 4.8 l 2.9,4.5 -2.9,4.5 h -4.8 l -8.6,16 2.4,3.5 -2.9,4.5 h -5.9 z m -2.4,-5 1.9,-3.7 -8.6,-15.3 h -3.8 l -8.6,15.3 1.9,3.7 z m 7.3,-4 8.6,-15.3 -1.9,-3.7 H 1548 l -1.9,3.7 8.6,15.3 z m -27.8,0 8.6,-15.3 -1.9,-3.7 h -17.1 l -1.9,3.7 8.6,15.3 z m 34.4,-20 1.9,-3.2 -8.6,-14.8 h -3.8 l -8.6,14.8 1.9,3.2 z m -27.8,0 1.9,-3.2 -8.6,-14.8 h -3.8 l -8.6,14.8 1.9,3.2 z m 7.3,-4 8.6,-14.8 -1.9,-3.2 h -17.1 l -1.9,3.2 8.6,14.8 z" id="path4428" inkscape:connector-curvature="0" style="fill:#99cccc;fill-opacity:1"/></g><rect x="-1401.1001" y="386.5" class="st23" width="661.40002" height="335.89999" id="rect4790" style="fill:none"/></svg>