<?xml version="1.0" encoding="UTF-8" standalone="no"?>
<svg
   xmlns:dc="http://purl.org/dc/elements/1.1/"
   xmlns:cc="http://creativecommons.org/ns#"
   xmlns:rdf="http://www.w3.org/1999/02/22-rdf-syntax-ns#"
   xmlns:svg="http://www.w3.org/2000/svg"
   xmlns="http://www.w3.org/2000/svg"
   version="1.1"
   id="Layer_1"
   x="0px"
   y="0px"
   viewBox="0 0 1061.4 623.90002"
   xml:space="preserve"
   width="1061.4"
   height="623.90002"><metadata
     id="metadata603"><rdf:RDF><cc:Work
         rdf:about=""><dc:format>image/svg+xml</dc:format><dc:type
           rdf:resource="http://purl.org/dc/dcmitype/StillImage" /><dc:title></dc:title></cc:Work></rdf:RDF></metadata><defs
     id="defs601" /><style
     type="text/css"
     id="style3">
	.st0{fill:#DFEDF7;}
	.st1{fill:#92C2E2;}
	.st2{fill:#0071BC;}
	.st3{fill:#8CC63F;}
	.st4{fill:#FFFFFF;}
	.st5{font-family:'HelveticaNeue';}
	.st6{font-size:22px;}
	.st7{font-size:27px;}
	.st8{font-family:'HelveticaNeue-Bold';}
	.st9{font-size:32px;}
	.st10{fill:none;stroke:#0071BC;stroke-width:2;stroke-miterlimit:10;}
	.st11{fill:#FFFFFF;stroke:#0071BC;stroke-width:2;stroke-miterlimit:10;}
	.st12{fill:none;stroke:#0071BC;stroke-width:2;stroke-linecap:round;stroke-linejoin:round;stroke-miterlimit:10;}
	.st13{fill:none;stroke:#0071BC;stroke-width:2;stroke-linejoin:round;stroke-miterlimit:10;}
	.st14{fill:none;stroke:#0071BC;stroke-width:4;stroke-miterlimit:10;}
	.st15{fill:#FFFFFF;stroke:#0071BC;stroke-width:2;stroke-linecap:round;stroke-linejoin:round;stroke-miterlimit:10;}
	.st16{fill:none;stroke:#0071BC;stroke-width:2;stroke-linecap:round;stroke-linejoin:round;}
	.st17{fill:none;stroke:#0071BC;stroke-width:2;stroke-linecap:round;stroke-linejoin:round;stroke-dasharray:6.0308,6.0308;}
	.st18{fill:none;stroke:#0071BC;stroke-width:2;stroke-linecap:round;stroke-linejoin:round;stroke-dasharray:5.945,5.945;}
	.st19{fill:none;stroke:#0071BC;stroke-width:2;stroke-linecap:round;stroke-linejoin:round;stroke-dasharray:5.7912,5.7912;}
	.st20{fill:none;stroke:#0071BC;stroke-width:2;stroke-linecap:round;stroke-linejoin:round;stroke-dasharray:6,6;}
	.st21{fill:none;stroke:#0071BC;stroke-width:2;stroke-miterlimit:10;stroke-dasharray:6,6;}
	.st22{font-size:18px;}
	.st23{fill:none;}
	.st24{font-family:'MyriadPro-Regular';}
	.st25{font-family:'MyriadPro-Bold';}
</style><rect
     x="928.10004"
     y="426.39999"
     class="st3"
     width="123.3"
     height="187.3"
     id="rect37"
     style="fill:#8cc63f" /><rect
     x="626.50006"
     y="426.60001"
     class="st3"
     width="129.89999"
     height="187.3"
     id="rect39"
     style="fill:#8cc63f" /><rect
     x="87.500069"
     y="426.60001"
     class="st3"
     width="191.8"
     height="187.3"
     id="rect41"
     style="fill:#8cc63f" /><g
     id="g79"
     transform="translate(-967.29999,-154.10001)"><polygon
       class="st10"
       points="1427.3,290.8 1427.3,230.5 1479.5,200.4 1531.7,230.5 1531.7,290.8 1479.5,321 "
       id="polygon81"
       style="fill:none;stroke:#0071bc;stroke-width:2;stroke-miterlimit:10" /><line
       class="st10"
       x1="1480.2"
       y1="215.10001"
       x2="1480.2"
       y2="303.39999"
       id="line83"
       style="fill:none;stroke:#0071bc;stroke-width:2;stroke-miterlimit:10" /><line
       class="st10"
       x1="1441.9"
       y1="237.2"
       x2="1518.4"
       y2="281.39999"
       id="line85"
       style="fill:none;stroke:#0071bc;stroke-width:2;stroke-miterlimit:10" /><line
       class="st10"
       x1="1441.9"
       y1="281.39999"
       x2="1518.4"
       y2="237.2"
       id="line87"
       style="fill:none;stroke:#0071bc;stroke-width:2;stroke-miterlimit:10" /><polygon
       class="st11"
       points="1471.9,215.1 1463.7,200.8 1471.9,186.5 1488.4,186.5 1496.7,200.8 1488.4,215.1 "
       id="polygon89"
       style="fill:#ffffff;stroke:#0071bc;stroke-width:2;stroke-miterlimit:10" /><polygon
       class="st11"
       points="1421.2,244.5 1412.9,230.2 1421.2,215.9 1437.7,215.9 1446,230.2 1437.7,244.5 "
       id="polygon91"
       style="fill:#ffffff;stroke:#0071bc;stroke-width:2;stroke-miterlimit:10" /><polygon
       class="st11"
       points="1471.9,273.6 1463.7,259.3 1471.9,245 1488.4,245 1496.7,259.3 1488.4,273.6 "
       id="polygon93"
       style="fill:#ffffff;stroke:#0071bc;stroke-width:2;stroke-miterlimit:10" /><polygon
       class="st11"
       points="1471.9,332.1 1463.7,317.7 1471.9,303.4 1488.4,303.4 1496.7,317.7 1488.4,332.1 "
       id="polygon95"
       style="fill:#ffffff;stroke:#0071bc;stroke-width:2;stroke-miterlimit:10" /><polygon
       class="st11"
       points="1421.2,302.9 1412.9,288.6 1421.2,274.2 1437.7,274.2 1446,288.6 1437.7,302.9 "
       id="polygon97"
       style="fill:#ffffff;stroke:#0071bc;stroke-width:2;stroke-miterlimit:10" /><polygon
       class="st11"
       points="1522.6,244.4 1514.4,230.1 1522.6,215.8 1539.1,215.8 1547.4,230.1 1539.1,244.4 "
       id="polygon99"
       style="fill:#ffffff;stroke:#0071bc;stroke-width:2;stroke-miterlimit:10" /><polygon
       class="st11"
       points="1522.6,302.8 1514.4,288.5 1522.6,274.2 1539.1,274.2 1547.4,288.5 1539.1,302.8 "
       id="polygon101"
       style="fill:#ffffff;stroke:#0071bc;stroke-width:2;stroke-miterlimit:10" /></g><g
     id="g103"
     transform="translate(-967.29999,-154.10001)"><path
       class="st12"
       d="m 1763.3,248.5 c 0,0 20.2,-3.1 35.2,-2.9 15,0.2 16.1,-1.4 16.1,-1.4 l 50.1,-19.5 c 0,0 9.7,-0.3 17.8,-0.1 8.1,0.2 12.5,1.6 12.5,1.6 l -34.7,20 c 0,0 72.2,6.5 74.2,6.3 2,-0.2 20.8,-16.6 25.5,-20.6 4.7,-4 13.7,-12.5 16.6,-13.4 2.9,-0.9 14.1,-1.3 15.5,-1.1 1.3,0.2 1.3,2.7 2,5.8 0.7,3.1 5.6,32.9 5.8,32.9 0.2,0 2.7,2.3 2.7,2.3 0,0 3.6,0.4 3.8,1.6 0.2,1.1 0,2.5 0,2.5 0,0 0.9,1.3 0.1,1.6 -0.8,0.2 -55,4.7 -65.8,5.4 -10.8,0.7 -70.4,5.6 -78.7,6.1 -8.3,0.4 -54.9,0.4 -58.9,0 -4,-0.4 -19.7,-0.9 -21.7,-0.9 -2,0 -6.1,-0.4 -7.4,-1.3 -1.3,-0.9 -2,-3.1 -2.2,-4 -0.2,-0.9 -2,-1.1 -3.1,-2.5 -1.1,-1.3 -4.7,-6.4 -6,-8.7 -1.6,-3.3 0.6,-9.7 0.6,-9.7 z"
       id="path105"
       style="fill:none;stroke:#0071bc;stroke-width:2;stroke-linecap:round;stroke-linejoin:round;stroke-miterlimit:10" /><path
       class="st12"
       d="m 1810.8,245.3 c 0,0 14.1,3.3 27.4,3.3 13.3,0 22.1,-2.5 22.1,-2.5"
       id="path107"
       style="fill:none;stroke:#0071bc;stroke-width:2;stroke-linecap:round;stroke-linejoin:round;stroke-miterlimit:10" /><polyline
       class="st12"
       points="1987,217 1987,256 1999.9,255.9  "
       id="polyline109"
       style="fill:none;stroke:#0071bc;stroke-width:2;stroke-linecap:round;stroke-linejoin:round;stroke-miterlimit:10" /><line
       class="st13"
       x1="1905"
       y1="250"
       x2="1905"
       y2="272"
       id="line111"
       style="fill:none;stroke:#0071bc;stroke-width:2;stroke-linejoin:round;stroke-miterlimit:10" /><polygon
       class="st12"
       points="1761,280.8 1758.8,253.5 1761,226.1 1762.1,259.3 "
       id="polygon113"
       style="fill:none;stroke:#0071bc;stroke-width:2;stroke-linecap:round;stroke-linejoin:round;stroke-miterlimit:10" /><line
       class="st13"
       x1="1796"
       y1="246"
       x2="1796"
       y2="275"
       id="line115"
       style="fill:none;stroke:#0071bc;stroke-width:2;stroke-linejoin:round;stroke-miterlimit:10" /><path
       class="st12"
       d="m 1791.3,254.2 c 0,0 1.2,-0.3 1.5,1.7 0.3,2 0,9.6 0,9.6 0,0 0.2,2.7 -2.4,2.4 -2.6,-0.3 -5.9,0 -5.9,0 0,0 -3,-0.5 -2.2,-3.2 0.8,-2.7 3.6,-6.7 5.2,-8.7 1.5,-1.8 3.8,-1.8 3.8,-1.8 z"
       id="path117"
       style="fill:none;stroke:#0071bc;stroke-width:2;stroke-linecap:round;stroke-linejoin:round;stroke-miterlimit:10" /><path
       class="st12"
       d="m 1770.5,267.8 5.4,0 c 0,0 1.2,2.5 0,3.4 -1.2,0.8 -1.8,1.8 -1.8,1.8"
       id="path119"
       style="fill:none;stroke:#0071bc;stroke-width:2;stroke-linecap:round;stroke-linejoin:round;stroke-miterlimit:10" /><path
       class="st12"
       d="m 1814.2,275.5 c 0,0 1.6,-5 4,-5.1 2.4,-0.1 42.7,0.1 43.4,0 0.7,-0.1 0.5,4.8 0.5,4.8"
       id="path121"
       style="fill:none;stroke:#0071bc;stroke-width:2;stroke-linecap:round;stroke-linejoin:round;stroke-miterlimit:10" /><path
       class="st12"
       d="m 1865,275 c 0,0 -0.7,-3 0.6,-3.8 1.3,-0.8 10.9,-1.7 13.4,-0.8 2.5,1 6.7,3 6.7,3"
       id="path123"
       style="fill:none;stroke:#0071bc;stroke-width:2;stroke-linecap:round;stroke-linejoin:round;stroke-miterlimit:10" /><path
       class="st12"
       d="m 1987,256 c 0,0 -7,0.6 -9.5,2.2 -2.5,1.6 8.9,2.8 12.5,2.8 3.6,0.1 16.4,-1.3 16.4,-1.3"
       id="path125"
       style="fill:none;stroke:#0071bc;stroke-width:2;stroke-linecap:round;stroke-linejoin:round;stroke-miterlimit:10" /><line
       class="st13"
       x1="1911"
       y1="251"
       x2="1911"
       y2="272"
       id="line127"
       style="fill:none;stroke:#0071bc;stroke-width:2;stroke-linejoin:round;stroke-miterlimit:10" /><path
       class="st12"
       d="m 1799.6,245.2 0,-2.7 c 0,-1.5 1.3,-2.8 2.8,-2.8 l 0,0 c 1.5,0 2.8,1.3 2.8,2.8 l 0,2.7"
       id="path129"
       style="fill:none;stroke:#0071bc;stroke-width:2;stroke-linecap:round;stroke-linejoin:round;stroke-miterlimit:10" /></g><g
     id="g131"
     transform="translate(-967.29999,-154.10001)"><path
       class="st13"
       d="m 1844.7,368.6 c 0,-12.2 -9.9,-19.7 -22.1,-19.7 -12.2,0 -22.1,7.5 -22.1,19.7 l 0,1.2 c 0,-3.1 2.5,-5.5 5.5,-5.5 3.1,0 5.5,2.5 5.5,5.5 0,-3.1 2.5,-5.5 5.5,-5.5 3.1,0 5.5,2.5 5.5,5.5 0,-3.1 2.5,-5.5 5.5,-5.5 3.1,0 5.5,2.5 5.5,5.5 0,-3.1 2.5,-5.5 5.5,-5.5 3.1,0 5.5,2.5 5.5,5.5 l 0,-1.2 z"
       id="path133"
       style="fill:none;stroke:#0071bc;stroke-width:2;stroke-linejoin:round;stroke-miterlimit:10" /><line
       class="st13"
       x1="1800.5"
       y1="369.79999"
       x2="1822.6"
       y2="400.20001"
       id="line135"
       style="fill:none;stroke:#0071bc;stroke-width:2;stroke-linejoin:round;stroke-miterlimit:10" /><line
       class="st13"
       x1="1811.6"
       y1="369.79999"
       x2="1822.6"
       y2="400.20001"
       id="line137"
       style="fill:none;stroke:#0071bc;stroke-width:2;stroke-linejoin:round;stroke-miterlimit:10" /><line
       class="st13"
       x1="1844.7"
       y1="369.79999"
       x2="1822.6"
       y2="400.20001"
       id="line139"
       style="fill:none;stroke:#0071bc;stroke-width:2;stroke-linejoin:round;stroke-miterlimit:10" /><line
       class="st13"
       x1="1833.7"
       y1="369.79999"
       x2="1822.6"
       y2="400.20001"
       id="line141"
       style="fill:none;stroke:#0071bc;stroke-width:2;stroke-linejoin:round;stroke-miterlimit:10" /><line
       class="st13"
       x1="1822.6"
       y1="369.79999"
       x2="1822.6"
       y2="400.20001"
       id="line143"
       style="fill:none;stroke:#0071bc;stroke-width:2;stroke-linejoin:round;stroke-miterlimit:10" /><rect
       x="1818.1"
       y="395"
       class="st11"
       width="9"
       height="9"
       id="rect145"
       style="fill:#ffffff;stroke:#0071bc;stroke-width:2;stroke-miterlimit:10" /></g><g
     id="g147"
     transform="translate(-967.29999,-154.10001)"><path
       class="st13"
       d="m 1938,370.2 c 0,-12.2 -9.9,-19.7 -22.1,-19.7 -12.2,0 -22.1,7.5 -22.1,19.7 l 0,1.2 c 0,-3.1 2.5,-5.5 5.5,-5.5 3.1,0 5.5,2.5 5.5,5.5 0,-3.1 2.5,-5.5 5.5,-5.5 3.1,0 5.5,2.5 5.5,5.5 0,-3.1 2.5,-5.5 5.5,-5.5 3.1,0 5.5,2.5 5.5,5.5 0,-3.1 2.5,-5.5 5.5,-5.5 3.1,0 5.5,2.5 5.5,5.5 l 0,-1.2 z"
       id="path149"
       style="fill:none;stroke:#0071bc;stroke-width:2;stroke-linejoin:round;stroke-miterlimit:10" /><line
       class="st13"
       x1="1893.8"
       y1="371.39999"
       x2="1915.9"
       y2="401.79999"
       id="line151"
       style="fill:none;stroke:#0071bc;stroke-width:2;stroke-linejoin:round;stroke-miterlimit:10" /><line
       class="st13"
       x1="1904.8"
       y1="371.39999"
       x2="1915.9"
       y2="401.79999"
       id="line153"
       style="fill:none;stroke:#0071bc;stroke-width:2;stroke-linejoin:round;stroke-miterlimit:10" /><line
       class="st13"
       x1="1938"
       y1="371.39999"
       x2="1915.9"
       y2="401.79999"
       id="line155"
       style="fill:none;stroke:#0071bc;stroke-width:2;stroke-linejoin:round;stroke-miterlimit:10" /><line
       class="st13"
       x1="1926.9"
       y1="371.39999"
       x2="1915.9"
       y2="401.79999"
       id="line157"
       style="fill:none;stroke:#0071bc;stroke-width:2;stroke-linejoin:round;stroke-miterlimit:10" /><line
       class="st13"
       x1="1915.9"
       y1="371.39999"
       x2="1915.9"
       y2="401.79999"
       id="line159"
       style="fill:none;stroke:#0071bc;stroke-width:2;stroke-linejoin:round;stroke-miterlimit:10" /><rect
       x="1911.4"
       y="396.60001"
       class="st11"
       width="9"
       height="9"
       id="rect161"
       style="fill:#ffffff;stroke:#0071bc;stroke-width:2;stroke-miterlimit:10" /></g><g
     id="g163"
     transform="translate(-967.29999,-154.10001)"><path
       class="st13"
       d="m 2009.9,455.5 c 0,-12.2 -9.9,-19.7 -22.1,-19.7 -12.2,0 -22.1,7.5 -22.1,19.7 l 0,1.2 c 0,-3.1 2.5,-5.5 5.5,-5.5 3,0 5.5,2.5 5.5,5.5 0,-3.1 2.5,-5.5 5.5,-5.5 3.1,0 5.5,2.5 5.5,5.5 0,-3.1 2.5,-5.5 5.5,-5.5 3.1,0 5.5,2.5 5.5,5.5 0,-3.1 2.5,-5.5 5.5,-5.5 3.1,0 5.5,2.5 5.5,5.5 l 0,-1.2 z"
       id="path165"
       style="fill:none;stroke:#0071bc;stroke-width:2;stroke-linejoin:round;stroke-miterlimit:10" /><line
       class="st13"
       x1="1965.6"
       y1="456.70001"
       x2="1987.8"
       y2="487.10001"
       id="line167"
       style="fill:none;stroke:#0071bc;stroke-width:2;stroke-linejoin:round;stroke-miterlimit:10" /><line
       class="st13"
       x1="1976.7"
       y1="456.70001"
       x2="1987.8"
       y2="487.10001"
       id="line169"
       style="fill:none;stroke:#0071bc;stroke-width:2;stroke-linejoin:round;stroke-miterlimit:10" /><line
       class="st13"
       x1="2009.9"
       y1="456.70001"
       x2="1987.8"
       y2="487.10001"
       id="line171"
       style="fill:none;stroke:#0071bc;stroke-width:2;stroke-linejoin:round;stroke-miterlimit:10" /><line
       class="st13"
       x1="1998.8"
       y1="456.70001"
       x2="1987.8"
       y2="487.10001"
       id="line173"
       style="fill:none;stroke:#0071bc;stroke-width:2;stroke-linejoin:round;stroke-miterlimit:10" /><line
       class="st13"
       x1="1987.8"
       y1="456.70001"
       x2="1987.8"
       y2="487.10001"
       id="line175"
       style="fill:none;stroke:#0071bc;stroke-width:2;stroke-linejoin:round;stroke-miterlimit:10" /><rect
       x="1983.2"
       y="481.89999"
       class="st11"
       width="9"
       height="9"
       id="rect177"
       style="fill:#ffffff;stroke:#0071bc;stroke-width:2;stroke-miterlimit:10" /></g><g
     id="g179"
     transform="translate(-967.29999,-154.10001)"><path
       class="st11"
       d="m 1997.3,636 -81,0 c -1.1,0 -2,-0.9 -2,-2 l 0,-58.9 c 0,-1.1 0.9,-2 2,-2 l 81,0 c 1.1,0 2,0.9 2,2 l 0,58.9 c 0,1.1 -0.9,2 -2,2 z"
       id="path181"
       style="fill:#ffffff;stroke:#0071bc;stroke-width:2;stroke-miterlimit:10" /><path
       class="st11"
       d="m 1917,628.3 0,-49.8 c 0,-1.1 0.9,-2 2,-2 l 74.8,0 c 1.1,0 2,0.9 2,2 l 0,49.8"
       id="path183"
       style="fill:#ffffff;stroke:#0071bc;stroke-width:2;stroke-miterlimit:10" /><line
       class="st10"
       x1="1914.3"
       y1="628.29999"
       x2="1999.3"
       y2="628.29999"
       id="line185"
       style="fill:none;stroke:#0071bc;stroke-width:2;stroke-miterlimit:10" /></g><g
     id="g187"
     transform="translate(-967.29999,-154.10001)"><path
       class="st11"
       d="m 1975.8,751.8 -23,0 c -1.1,0 -2,-0.9 -2,-2 l 0,-44.5 c 0,-1.1 0.9,-2 2,-2 l 23,0 c 1.1,0 2,0.9 2,2 l 0,44.5 c 0,1.1 -0.9,2 -2,2 z"
       id="path189"
       style="fill:#ffffff;stroke:#0071bc;stroke-width:2;stroke-miterlimit:10" /><rect
       x="1954"
       y="709.59998"
       class="st11"
       width="20.6"
       height="35.099998"
       id="rect191"
       style="fill:#ffffff;stroke:#0071bc;stroke-width:2;stroke-miterlimit:10" /><circle
       class="st11"
       cx="1964.8"
       cy="748.09998"
       r="2.0999999"
       id="circle193"
       style="fill:#ffffff;stroke:#0071bc;stroke-width:2;stroke-miterlimit:10" /></g><g
     id="g195"
     transform="translate(-967.29999,-154.10001)"><path
       class="st11"
       d="m 1984.9,689.8 -56.1,0 c -1.1,0 -2,-0.9 -2,-2 l 0,-40 c 0,-1.1 0.9,-2 2,-2 l 56.1,0 c 1.1,0 2,0.9 2,2 l 0,40 c 0,1.1 -0.9,2 -2,2 z"
       id="path197"
       style="fill:#ffffff;stroke:#0071bc;stroke-width:2;stroke-miterlimit:10" /><rect
       x="1933.8"
       y="649.09998"
       class="st11"
       width="45.799999"
       height="37.5"
       id="rect199"
       style="fill:#ffffff;stroke:#0071bc;stroke-width:2;stroke-miterlimit:10" /><circle
       transform="matrix(0.9909,-0.1343,0.1343,0.9909,-71.7182,272.3252)"
       class="st11"
       cx="1983"
       cy="667.79999"
       id="ellipse201"
       r="2.0999999"
       style="fill:#ffffff;stroke:#0071bc;stroke-width:2;stroke-miterlimit:10" /></g><g
     id="g203"
     transform="translate(-967.29999,-154.10001)"><rect
       x="1630.9"
       y="549.29999"
       class="st11"
       width="57"
       height="122.3"
       id="rect205"
       style="fill:#ffffff;stroke:#0071bc;stroke-width:2;stroke-miterlimit:10" /><line
       class="st10"
       x1="1638.2"
       y1="558"
       x2="1682.3"
       y2="558"
       id="line207"
       style="fill:none;stroke:#0071bc;stroke-width:2;stroke-miterlimit:10" /><line
       class="st10"
       x1="1638.2"
       y1="568"
       x2="1682.3"
       y2="568"
       id="line209"
       style="fill:none;stroke:#0071bc;stroke-width:2;stroke-miterlimit:10" /><line
       class="st10"
       x1="1638.2"
       y1="578.40002"
       x2="1682.3"
       y2="578.40002"
       id="line211"
       style="fill:none;stroke:#0071bc;stroke-width:2;stroke-miterlimit:10" /><line
       class="st10"
       x1="1638.2"
       y1="588.79999"
       x2="1682.3"
       y2="588.79999"
       id="line213"
       style="fill:none;stroke:#0071bc;stroke-width:2;stroke-miterlimit:10" /><line
       class="st10"
       x1="1638.2"
       y1="599.20001"
       x2="1682.3"
       y2="599.20001"
       id="line215"
       style="fill:none;stroke:#0071bc;stroke-width:2;stroke-miterlimit:10" /><line
       class="st10"
       x1="1638.2"
       y1="609.59998"
       x2="1682.3"
       y2="609.59998"
       id="line217"
       style="fill:none;stroke:#0071bc;stroke-width:2;stroke-miterlimit:10" /><line
       class="st10"
       x1="1638.2"
       y1="620.09998"
       x2="1682.3"
       y2="620.09998"
       id="line219"
       style="fill:none;stroke:#0071bc;stroke-width:2;stroke-miterlimit:10" /><line
       class="st10"
       x1="1638.2"
       y1="630.5"
       x2="1682.3"
       y2="630.5"
       id="line221"
       style="fill:none;stroke:#0071bc;stroke-width:2;stroke-miterlimit:10" /><line
       class="st10"
       x1="1638.2"
       y1="640.90002"
       x2="1682.3"
       y2="640.90002"
       id="line223"
       style="fill:none;stroke:#0071bc;stroke-width:2;stroke-miterlimit:10" /><line
       class="st10"
       x1="1638.2"
       y1="651.29999"
       x2="1682.3"
       y2="651.29999"
       id="line225"
       style="fill:none;stroke:#0071bc;stroke-width:2;stroke-miterlimit:10" /><rect
       x="1676.4"
       y="658.29999"
       class="st10"
       width="5.9000001"
       height="5.9000001"
       id="rect227"
       style="fill:none;stroke:#0071bc;stroke-width:2;stroke-miterlimit:10" /></g><rect
     x="297.00006"
     y="426.60001"
     class="st3"
     width="103.4"
     height="187.3"
     id="rect229"
     style="fill:#8cc63f" /><g
     id="g231"
     transform="translate(-967.29999,-154.10001)"><rect
       x="1286.1"
       y="549.29999"
       class="st11"
       width="57"
       height="122.3"
       id="rect233"
       style="fill:#ffffff;stroke:#0071bc;stroke-width:2;stroke-miterlimit:10" /><line
       class="st10"
       x1="1293.3"
       y1="558"
       x2="1337.5"
       y2="558"
       id="line235"
       style="fill:none;stroke:#0071bc;stroke-width:2;stroke-miterlimit:10" /><line
       class="st10"
       x1="1293.3"
       y1="568"
       x2="1337.5"
       y2="568"
       id="line237"
       style="fill:none;stroke:#0071bc;stroke-width:2;stroke-miterlimit:10" /><line
       class="st10"
       x1="1293.3"
       y1="578.40002"
       x2="1337.5"
       y2="578.40002"
       id="line239"
       style="fill:none;stroke:#0071bc;stroke-width:2;stroke-miterlimit:10" /><line
       class="st10"
       x1="1293.3"
       y1="588.79999"
       x2="1337.5"
       y2="588.79999"
       id="line241"
       style="fill:none;stroke:#0071bc;stroke-width:2;stroke-miterlimit:10" /><line
       class="st10"
       x1="1293.3"
       y1="599.20001"
       x2="1337.5"
       y2="599.20001"
       id="line243"
       style="fill:none;stroke:#0071bc;stroke-width:2;stroke-miterlimit:10" /><line
       class="st10"
       x1="1293.3"
       y1="609.59998"
       x2="1337.5"
       y2="609.59998"
       id="line245"
       style="fill:none;stroke:#0071bc;stroke-width:2;stroke-miterlimit:10" /><line
       class="st10"
       x1="1293.3"
       y1="620.09998"
       x2="1337.5"
       y2="620.09998"
       id="line247"
       style="fill:none;stroke:#0071bc;stroke-width:2;stroke-miterlimit:10" /><line
       class="st10"
       x1="1293.3"
       y1="630.5"
       x2="1337.5"
       y2="630.5"
       id="line249"
       style="fill:none;stroke:#0071bc;stroke-width:2;stroke-miterlimit:10" /><line
       class="st10"
       x1="1293.3"
       y1="640.90002"
       x2="1337.5"
       y2="640.90002"
       id="line251"
       style="fill:none;stroke:#0071bc;stroke-width:2;stroke-miterlimit:10" /><line
       class="st10"
       x1="1293.3"
       y1="651.29999"
       x2="1337.5"
       y2="651.29999"
       id="line253"
       style="fill:none;stroke:#0071bc;stroke-width:2;stroke-miterlimit:10" /><rect
       x="1331.5"
       y="658.29999"
       class="st10"
       width="5.9000001"
       height="5.9000001"
       id="rect255"
       style="fill:none;stroke:#0071bc;stroke-width:2;stroke-miterlimit:10" /></g><line
     class="st14"
     x1="928.10004"
     y1="426.39999"
     x2="928.10004"
     y2="613.59998"
     id="line257"
     style="fill:none;stroke:#0071bc;stroke-width:4;stroke-miterlimit:10" /><line
     class="st14"
     x1="626.79999"
     y1="426.39999"
     x2="626.79999"
     y2="613.59998"
     id="line259"
     style="fill:none;stroke:#0071bc;stroke-width:4;stroke-miterlimit:10" /><line
     class="st14"
     x1="400.39996"
     y1="426.39999"
     x2="400.39996"
     y2="613.59998"
     id="line261"
     style="fill:none;stroke:#0071bc;stroke-width:4;stroke-miterlimit:10" /><polygon
     class="st11"
     points="1151,581 1151,577 1136,577 1136,563 1127,563 1127,577 1112,577 1112,581 "
     id="polygon263"
     style="fill:#ffffff;stroke:#0071bc;stroke-width:2;stroke-miterlimit:10"
     transform="translate(-967.29999,-154.10001)" /><path
     class="st15"
     d="m 184.60001,401.19999 c -24.6,4.1 -47.4,-9.6 -51.3,-30.7 -0.7,4 -0.7,8.2 0,12.5 3.5,20.7 23.1,34.7 43.8,31.2 12.8,-2.1 23,-10.4 28.1,-21.3 -5.8,4.1 -12.8,7 -20.6,8.3 z"
     id="path265"
     style="fill:#ffffff;stroke:#0071bc;stroke-width:2;stroke-linecap:round;stroke-linejoin:round;stroke-miterlimit:10" /><line
     class="st12"
     x1="172.70001"
     y1="369.39999"
     x2="163.60004"
     y2="400.49997"
     id="line267"
     style="fill:none;stroke:#0071bc;stroke-width:2;stroke-linecap:round;stroke-linejoin:round;stroke-miterlimit:10" /><g
     id="g269"
     transform="translate(-967.29999,-154.10001)"><g
       id="g271"><line
         class="st16"
         x1="1150.3"
         y1="500.29999"
         x2="1152"
         y2="497.79999"
         id="line273"
         style="fill:none;stroke:#0071bc;stroke-width:2;stroke-linecap:round;stroke-linejoin:round" /><line
         class="st17"
         x1="1155.4"
         y1="492.89999"
         x2="1318.8"
         y2="257.60001"
         id="line275"
         style="fill:none;stroke:#0071bc;stroke-width:2;stroke-linecap:round;stroke-linejoin:round;stroke-dasharray:6.0308, 6.0308" /><line
         class="st16"
         x1="1320.5"
         y1="255.10001"
         x2="1322.2"
         y2="252.60001"
         id="line277"
         style="fill:none;stroke:#0071bc;stroke-width:2;stroke-linecap:round;stroke-linejoin:round" /><g
         id="g279"><polygon
           class="st2"
           points="1154.2,501.6 1147,505 1147.7,497.1 "
           id="polygon281"
           style="fill:#0071bc" /></g><g
         id="g283"><polygon
           class="st2"
           points="1324.8,255.9 1325.5,247.9 1318.3,251.3 "
           id="polygon285"
           style="fill:#0071bc" /></g></g></g><g
     id="g287"
     transform="translate(-967.29999,-154.10001)"><g
       id="g289"><line
         class="st16"
         x1="1158.8"
         y1="511.39999"
         x2="1161.1"
         y2="509.5"
         id="line291"
         style="fill:none;stroke:#0071bc;stroke-width:2;stroke-linecap:round;stroke-linejoin:round" /><line
         class="st18"
         x1="1165.7"
         y1="505.70001"
         x2="1402.6"
         y2="311.79999"
         id="line293"
         style="fill:none;stroke:#0071bc;stroke-width:2;stroke-linecap:round;stroke-linejoin:round;stroke-dasharray:5.945, 5.945" /><line
         class="st16"
         x1="1404.9"
         y1="309.89999"
         x2="1407.2"
         y2="308"
         id="line295"
         style="fill:none;stroke:#0071bc;stroke-width:2;stroke-linecap:round;stroke-linejoin:round" /><g
         id="g297"><polygon
           class="st2"
           points="1162.2,513.7 1154.3,515 1157.2,507.5 "
           id="polygon299"
           style="fill:#0071bc" /></g><g
         id="g301"><polygon
           class="st2"
           points="1408.8,311.8 1411.7,304.3 1403.8,305.6 "
           id="polygon303"
           style="fill:#0071bc" /></g></g></g><g
     id="g305"
     transform="translate(-967.29999,-154.10001)"><g
       id="g307"><line
         class="st16"
         x1="1135.1"
         y1="500.60001"
         x2="1134.7"
         y2="497.60001"
         id="line309"
         style="fill:none;stroke:#0071bc;stroke-width:2;stroke-linecap:round;stroke-linejoin:round" /><line
         class="st19"
         x1="1134.1"
         y1="491.89999"
         x2="1119.6"
         y2="356.60001"
         id="line311"
         style="fill:none;stroke:#0071bc;stroke-width:2;stroke-linecap:round;stroke-linejoin:round;stroke-dasharray:5.7912, 5.7912" /><line
         class="st16"
         x1="1119.3"
         y1="353.70001"
         x2="1118.9"
         y2="350.70001"
         id="line313"
         style="fill:none;stroke:#0071bc;stroke-width:2;stroke-linecap:round;stroke-linejoin:round" /><g
         id="g315"><polygon
           class="st2"
           points="1138.9,499 1135.7,506.3 1131,499.9 "
           id="polygon317"
           style="fill:#0071bc" /></g><g
         id="g319"><polygon
           class="st2"
           points="1123,351.4 1118.3,345 1115.1,352.3 "
           id="polygon321"
           style="fill:#0071bc" /></g></g></g><g
     id="g323"
     transform="translate(-967.29999,-154.10001)"><g
       id="g325"><line
         class="st20"
         x1="1825"
         y1="291"
         x2="1825"
         y2="337.29999"
         id="line327"
         style="fill:none;stroke:#0071bc;stroke-width:2;stroke-linecap:round;stroke-linejoin:round;stroke-dasharray:6, 6" /><g
         id="g329"><polygon
           class="st2"
           points="1821,292.2 1825,285.3 1828.9,292.2 "
           id="polygon331"
           style="fill:#0071bc" /></g><g
         id="g333"><polygon
           class="st2"
           points="1821,336.1 1825,343 1828.9,336.1 "
           id="polygon335"
           style="fill:#0071bc" /></g></g></g><g
     id="g337"
     transform="translate(-967.29999,-154.10001)"><g
       id="g339"><line
         class="st20"
         x1="1839.4"
         y1="400.10001"
         x2="1898.8"
         y2="401.70001"
         id="line341"
         style="fill:none;stroke:#0071bc;stroke-width:2;stroke-linecap:round;stroke-linejoin:round;stroke-dasharray:6, 6" /><g
         id="g343"><polygon
           class="st2"
           points="1840.5,404.2 1833.7,400 1840.7,396.2 "
           id="polygon345"
           style="fill:#0071bc" /></g><g
         id="g347"><polygon
           class="st2"
           points="1897.5,405.6 1904.5,401.8 1897.7,397.6 "
           id="polygon349"
           style="fill:#0071bc" /></g></g></g><g
     id="g351"
     transform="translate(-967.29999,-154.10001)"><g
       id="g353"><line
         class="st20"
         x1="1921.6"
         y1="416.29999"
         x2="1964.6"
         y2="467.5"
         id="line355"
         style="fill:none;stroke:#0071bc;stroke-width:2;stroke-linecap:round;stroke-linejoin:round;stroke-dasharray:6, 6" /><g
         id="g357"><polygon
           class="st2"
           points="1919.3,419.7 1917.9,411.9 1925.4,414.6 "
           id="polygon359"
           style="fill:#0071bc" /></g><g
         id="g361"><polygon
           class="st2"
           points="1960.8,469.2 1968.3,471.9 1966.9,464 "
           id="polygon363"
           style="fill:#0071bc" /></g></g></g><g
     id="g365"
     transform="translate(-967.29999,-154.10001)"><g
       id="g367"><line
         class="st20"
         x1="1838.7"
         y1="409.89999"
         x2="1970.3"
         y2="483.60001"
         id="line369"
         style="fill:none;stroke:#0071bc;stroke-width:2;stroke-linecap:round;stroke-linejoin:round;stroke-dasharray:6, 6" /><g
         id="g371"><polygon
           class="st2"
           points="1837.8,413.9 1833.7,407 1841.6,406.9 "
           id="polygon373"
           style="fill:#0071bc" /></g><g
         id="g375"><polygon
           class="st2"
           points="1967.3,486.5 1975.3,486.4 1971.2,479.5 "
           id="polygon377"
           style="fill:#0071bc" /></g></g></g><g
     id="g379"
     transform="translate(-967.29999,-154.10001)"><g
       id="g381"><line
         class="st21"
         x1="1167.1"
         y1="518.40002"
         x2="1801.2"
         y2="289"
         id="line383"
         style="fill:none;stroke:#0071bc;stroke-width:2;stroke-miterlimit:10;stroke-dasharray:6, 6" /><g
         id="g385"><polygon
           class="st2"
           points="1169.5,521.7 1161.7,520.3 1166.8,514.2 "
           id="polygon387"
           style="fill:#0071bc" /></g><g
         id="g389"><polygon
           class="st2"
           points="1801.5,293.2 1806.6,287.1 1798.8,285.7 "
           id="polygon391"
           style="fill:#0071bc" /></g></g></g><g
     id="g393"
     transform="translate(-967.29999,-154.10001)"><g
       id="g395"><line
         class="st21"
         x1="1739.8"
         y1="599.20001"
         x2="1881.8"
         y2="599.20001"
         id="line397"
         style="fill:none;stroke:#0071bc;stroke-width:2;stroke-miterlimit:10;stroke-dasharray:6, 6" /><g
         id="g399"><polygon
           class="st2"
           points="1741,603.2 1734.1,599.2 1741,595.2 "
           id="polygon401"
           style="fill:#0071bc" /></g><g
         id="g403"><polygon
           class="st2"
           points="1880.7,603.2 1887.6,599.2 1880.7,595.2 "
           id="polygon405"
           style="fill:#0071bc" /></g></g></g><g
     id="g407"
     transform="translate(-967.29999,-154.10001)"><g
       id="g409"><line
         class="st21"
         x1="1379.8"
         y1="594.5"
         x2="1583.6"
         y2="594.5"
         id="line411"
         style="fill:none;stroke:#0071bc;stroke-width:2;stroke-miterlimit:10;stroke-dasharray:6, 6" /><g
         id="g413"><polygon
           class="st2"
           points="1381,598.5 1374.1,594.5 1381,590.5 "
           id="polygon415"
           style="fill:#0071bc" /></g><g
         id="g417"><polygon
           class="st2"
           points="1582.5,598.5 1589.4,594.5 1582.5,590.5 "
           id="polygon419"
           style="fill:#0071bc" /></g></g></g><text
     class="st2 st5 st22"
     id="text421"
     style="font-size:18px;font-family:HelveticaNeue;fill:#0071bc"
     x="761.54614"
     y="471.55869">WEB клиенты</text>
<rect
     x="762.60004"
     y="482.19998"
     class="st23"
     width="191.39999"
     height="127"
     id="rect423"
     style="fill:none" /><text
     id="text425"
     x="762.63263"
     y="497.18887"><tspan
       x="762.63263"
       y="497.18887"
       class="st2 st5 st22"
       id="tspan427"
       style="font-size:18px;font-family:HelveticaNeue;fill:#0071bc">html</tspan><tspan
       x="762.63263"
       y="522.38892"
       class="st2 st5 st22"
       id="tspan429"
       style="font-size:18px;font-family:HelveticaNeue;fill:#0071bc">css </tspan><tspan
       x="762.63263"
       y="547.58887"
       class="st2 st5 st22"
       id="tspan431"
       style="font-size:18px;font-family:HelveticaNeue;fill:#0071bc">svg </tspan><tspan
       x="762.63263"
       y="572.78894"
       class="st2 st5 st22"
       id="tspan433"
       style="font-size:18px;font-family:HelveticaNeue;fill:#0071bc">javascript </tspan><tspan
       x="762.63263"
       y="597.98889"
       class="st2 st5 st22"
       id="tspan435"
       style="font-size:18px;font-family:HelveticaNeue;fill:#0071bc">json cообщения</tspan></text>
<rect
     x="636.50006"
     y="524.90002"
     class="st23"
     width="120.5"
     height="75"
     id="rect459"
     style="fill:none" /><text
     id="text461"
     x="636.47229"
     y="539.84839"><tspan
       x="636.47229"
       y="539.84839"
       class="st2 st5 st22"
       id="tspan463"
       style="font-size:18px;font-family:HelveticaNeue;fill:#0071bc">Центр </tspan><tspan
       x="636.47229"
       y="565.04834"
       class="st2 st5 st22"
       id="tspan465"
       style="font-size:18px;font-family:HelveticaNeue;fill:#0071bc">управления </tspan><tspan
       x="636.47229"
       y="590.24841"
       class="st2 st5 st22"
       id="tspan467"
       style="font-size:18px;font-family:HelveticaNeue;fill:#0071bc">стендами</tspan></text>
<rect
     x="316.00006"
     y="528.30005"
     class="st23"
     width="78.400002"
     height="73.900002"
     id="rect469"
     style="fill:none" /><text
     id="text471"
     x="316.00662"
     y="543.2572"><tspan
       x="316.00662"
       y="543.2572"
       class="st2 st5 st22"
       id="tspan473"
       style="font-size:18px;font-family:HelveticaNeue;fill:#0071bc">Центр </tspan><tspan
       x="316.00662"
       y="568.45715"
       class="st2 st5 st22"
       id="tspan475"
       style="font-size:18px;font-family:HelveticaNeue;fill:#0071bc">связи </tspan><tspan
       x="316.00662"
       y="593.65723"
       class="st2 st5 st22"
       id="tspan477"
       style="font-size:18px;font-family:HelveticaNeue;fill:#0071bc">с КА</tspan></text>
<rect
     x="99.299988"
     y="444.10001"
     class="st23"
     width="175.39999"
     height="114.8"
     id="rect479"
     style="fill:none" /><text
     id="text481"
     x="99.332809"
     y="459.09872"><tspan
       x="99.332809"
       y="459.09872"
       class="st2 st5 st22"
       id="tspan483"
       style="font-size:18px;font-family:HelveticaNeue;fill:#0071bc">ДЗЗ</tspan><tspan
       x="99.332809"
       y="484.29868"
       class="st2 st5 st22"
       id="tspan485"
       style="font-size:18px;font-family:HelveticaNeue;fill:#0071bc">Связь с МКС</tspan><tspan
       x="99.332809"
       y="509.49869"
       class="st2 st5 st22"
       id="tspan487"
       style="font-size:18px;font-family:HelveticaNeue;fill:#0071bc">Телеметрия</tspan><tspan
       x="99.332809"
       y="534.69873"
       class="st2 st5 st22"
       id="tspan489"
       style="font-size:18px;font-family:HelveticaNeue;fill:#0071bc">Управление</tspan></text>
<g
     id="g491"
     transform="translate(-967.29999,-154.10001)"><line
       class="st10"
       x1="1105.5"
       y1="323.79999"
       x2="1128.6"
       y2="323.79999"
       id="line493"
       style="fill:none;stroke:#0071bc;stroke-width:2;stroke-miterlimit:10" /><rect
       x="1113"
       y="241.10001"
       class="st11"
       width="8.5"
       height="72.900002"
       id="rect495"
       style="fill:#ffffff;stroke:#0071bc;stroke-width:2;stroke-miterlimit:10" /><rect
       x="1113"
       y="213.2"
       class="st11"
       width="8.5"
       height="21.299999"
       id="rect497"
       style="fill:#ffffff;stroke:#0071bc;stroke-width:2;stroke-miterlimit:10" /><rect
       x="1111.2"
       y="314"
       class="st11"
       width="12.1"
       height="21.299999"
       id="rect499"
       style="fill:#ffffff;stroke:#0071bc;stroke-width:2;stroke-miterlimit:10" /><rect
       x="1085.5"
       y="320.60001"
       class="st11"
       width="19.9"
       height="5.6999998"
       id="rect501"
       style="fill:#ffffff;stroke:#0071bc;stroke-width:2;stroke-miterlimit:10" /><rect
       x="1128.8"
       y="320.60001"
       class="st11"
       width="19.9"
       height="5.6999998"
       id="rect503"
       style="fill:#ffffff;stroke:#0071bc;stroke-width:2;stroke-miterlimit:10" /><rect
       x="978.29999"
       y="165.10001"
       class="st11"
       width="12.3"
       height="65.800003"
       id="rect505"
       style="fill:#ffffff;stroke:#0071bc;stroke-width:2;stroke-miterlimit:10" /><rect
       x="995.79999"
       y="165.10001"
       class="st11"
       width="12.3"
       height="65.800003"
       id="rect507"
       style="fill:#ffffff;stroke:#0071bc;stroke-width:2;stroke-miterlimit:10" /><rect
       x="1016.8"
       y="165.10001"
       class="st11"
       width="12.3"
       height="65.800003"
       id="rect509"
       style="fill:#ffffff;stroke:#0071bc;stroke-width:2;stroke-miterlimit:10" /><rect
       x="1034.3"
       y="165.10001"
       class="st11"
       width="12.3"
       height="65.800003"
       id="rect511"
       style="fill:#ffffff;stroke:#0071bc;stroke-width:2;stroke-miterlimit:10" /><rect
       x="1187.3"
       y="165.10001"
       class="st11"
       width="12.3"
       height="65.800003"
       id="rect513"
       style="fill:#ffffff;stroke:#0071bc;stroke-width:2;stroke-miterlimit:10" /><rect
       x="1204.7"
       y="165.10001"
       class="st11"
       width="12.3"
       height="65.800003"
       id="rect515"
       style="fill:#ffffff;stroke:#0071bc;stroke-width:2;stroke-miterlimit:10" /><rect
       x="1225.8"
       y="165.10001"
       class="st11"
       width="12.3"
       height="65.800003"
       id="rect517"
       style="fill:#ffffff;stroke:#0071bc;stroke-width:2;stroke-miterlimit:10" /><rect
       x="1243.2"
       y="165.10001"
       class="st11"
       width="12.3"
       height="65.800003"
       id="rect519"
       style="fill:#ffffff;stroke:#0071bc;stroke-width:2;stroke-miterlimit:10" /><rect
       x="978.29999"
       y="245.39999"
       class="st11"
       width="12.3"
       height="65.800003"
       id="rect521"
       style="fill:#ffffff;stroke:#0071bc;stroke-width:2;stroke-miterlimit:10" /><rect
       x="995.79999"
       y="245.39999"
       class="st11"
       width="12.3"
       height="65.800003"
       id="rect523"
       style="fill:#ffffff;stroke:#0071bc;stroke-width:2;stroke-miterlimit:10" /><rect
       x="1016.8"
       y="245.39999"
       class="st11"
       width="12.3"
       height="65.800003"
       id="rect525"
       style="fill:#ffffff;stroke:#0071bc;stroke-width:2;stroke-miterlimit:10" /><rect
       x="1034.3"
       y="245.39999"
       class="st11"
       width="12.3"
       height="65.800003"
       id="rect527"
       style="fill:#ffffff;stroke:#0071bc;stroke-width:2;stroke-miterlimit:10" /><rect
       x="1063.6"
       y="245.39999"
       class="st11"
       width="8.1000004"
       height="36.400002"
       id="rect529"
       style="fill:#ffffff;stroke:#0071bc;stroke-width:2;stroke-miterlimit:10" /><rect
       x="1075.8"
       y="245.39999"
       class="st11"
       width="8.1000004"
       height="36.400002"
       id="rect531"
       style="fill:#ffffff;stroke:#0071bc;stroke-width:2;stroke-miterlimit:10" /><rect
       x="1087.9"
       y="245.39999"
       class="st11"
       width="8.1000004"
       height="36.400002"
       id="rect533"
       style="fill:#ffffff;stroke:#0071bc;stroke-width:2;stroke-miterlimit:10" /><rect
       x="1141.8"
       y="245.39999"
       class="st11"
       width="8.1000004"
       height="36.400002"
       id="rect535"
       style="fill:#ffffff;stroke:#0071bc;stroke-width:2;stroke-miterlimit:10" /><rect
       x="1153.9"
       y="245.39999"
       class="st11"
       width="8.1000004"
       height="36.400002"
       id="rect537"
       style="fill:#ffffff;stroke:#0071bc;stroke-width:2;stroke-miterlimit:10" /><rect
       x="1166.1"
       y="245.39999"
       class="st11"
       width="8.1000004"
       height="36.400002"
       id="rect539"
       style="fill:#ffffff;stroke:#0071bc;stroke-width:2;stroke-miterlimit:10" /><rect
       x="1187.3"
       y="245.39999"
       class="st11"
       width="12.3"
       height="65.800003"
       id="rect541"
       style="fill:#ffffff;stroke:#0071bc;stroke-width:2;stroke-miterlimit:10" /><rect
       x="1204.7"
       y="245.39999"
       class="st11"
       width="12.3"
       height="65.800003"
       id="rect543"
       style="fill:#ffffff;stroke:#0071bc;stroke-width:2;stroke-miterlimit:10" /><rect
       x="1225.8"
       y="245.39999"
       class="st11"
       width="12.3"
       height="65.800003"
       id="rect545"
       style="fill:#ffffff;stroke:#0071bc;stroke-width:2;stroke-miterlimit:10" /><rect
       x="1243.2"
       y="245.39999"
       class="st11"
       width="12.3"
       height="65.800003"
       id="rect547"
       style="fill:#ffffff;stroke:#0071bc;stroke-width:2;stroke-miterlimit:10" /><line
       class="st10"
       x1="988.90002"
       y1="231"
       x2="988.90002"
       y2="245.39999"
       id="line549"
       style="fill:none;stroke:#0071bc;stroke-width:2;stroke-miterlimit:10" /><line
       class="st10"
       x1="1002.1"
       y1="231"
       x2="1002.1"
       y2="245.39999"
       id="line551"
       style="fill:none;stroke:#0071bc;stroke-width:2;stroke-miterlimit:10" /><line
       class="st10"
       x1="1022.6"
       y1="231"
       x2="1022.6"
       y2="245.39999"
       id="line553"
       style="fill:none;stroke:#0071bc;stroke-width:2;stroke-miterlimit:10" /><line
       class="st10"
       x1="1039.9"
       y1="231"
       x2="1039.9"
       y2="245.39999"
       id="line555"
       style="fill:none;stroke:#0071bc;stroke-width:2;stroke-miterlimit:10" /><line
       class="st10"
       x1="1067"
       y1="237.60001"
       x2="1067"
       y2="245.39999"
       id="line557"
       style="fill:none;stroke:#0071bc;stroke-width:2;stroke-miterlimit:10" /><line
       class="st10"
       x1="1079.5"
       y1="237.60001"
       x2="1079.5"
       y2="245.39999"
       id="line559"
       style="fill:none;stroke:#0071bc;stroke-width:2;stroke-miterlimit:10" /><line
       class="st10"
       x1="1091.6"
       y1="237.60001"
       x2="1091.6"
       y2="245.39999"
       id="line561"
       style="fill:none;stroke:#0071bc;stroke-width:2;stroke-miterlimit:10" /><line
       class="st10"
       x1="1245.6"
       y1="231"
       x2="1245.6"
       y2="245.39999"
       id="line563"
       style="fill:none;stroke:#0071bc;stroke-width:2;stroke-miterlimit:10" /><line
       class="st10"
       x1="1232.7"
       y1="231"
       x2="1232.7"
       y2="245.39999"
       id="line565"
       style="fill:none;stroke:#0071bc;stroke-width:2;stroke-miterlimit:10" /><line
       class="st10"
       x1="1210.8"
       y1="231"
       x2="1210.8"
       y2="245.39999"
       id="line567"
       style="fill:none;stroke:#0071bc;stroke-width:2;stroke-miterlimit:10" /><line
       class="st10"
       x1="1194.4"
       y1="231"
       x2="1194.4"
       y2="245.39999"
       id="line569"
       style="fill:none;stroke:#0071bc;stroke-width:2;stroke-miterlimit:10" /><line
       class="st10"
       x1="1170"
       y1="237.60001"
       x2="1170"
       y2="245.39999"
       id="line571"
       style="fill:none;stroke:#0071bc;stroke-width:2;stroke-miterlimit:10" /><line
       class="st10"
       x1="1157.4"
       y1="237.60001"
       x2="1157.4"
       y2="245.39999"
       id="line573"
       style="fill:none;stroke:#0071bc;stroke-width:2;stroke-miterlimit:10" /><line
       class="st10"
       x1="1145.4"
       y1="237.60001"
       x2="1145.4"
       y2="245.39999"
       id="line575"
       style="fill:none;stroke:#0071bc;stroke-width:2;stroke-miterlimit:10" /><rect
       x="989.20001"
       y="234.89999"
       class="st11"
       width="256.20001"
       height="6"
       id="rect577"
       style="fill:#ffffff;stroke:#0071bc;stroke-width:2;stroke-miterlimit:10" /><circle
       class="st10"
       cx="1117.1"
       cy="207.3"
       r="5.5999999"
       id="circle579"
       style="fill:none;stroke:#0071bc;stroke-width:2;stroke-miterlimit:10" /><path
       class="st10"
       d="m 1123.2,184.1 0,10.7 c 0,3.4 -2.8,6.2 -6.2,6.2 l -0.2,0 c -3.4,0 -6.2,-2.8 -6.2,-6.2 l 0,-10.7 12.6,0 z"
       id="path581"
       style="fill:none;stroke:#0071bc;stroke-width:2;stroke-miterlimit:10" /></g><g
     id="g583"
     transform="translate(-967.29999,-154.10001)"><line
       class="st10"
       x1="1328.1"
       y1="218.3"
       x2="1352.8"
       y2="242.89999"
       id="line585"
       style="fill:none;stroke:#0071bc;stroke-width:2;stroke-miterlimit:10" /><rect
       x="1297.3"
       y="196.10001"
       transform="matrix(0.7071,0.7071,-0.7071,0.7071,530.7864,-869.5474)"
       class="st11"
       width="35.400002"
       height="19.700001"
       id="rect587"
       style="fill:#ffffff;stroke:#0071bc;stroke-width:2;stroke-miterlimit:10" /><rect
       x="1347.8"
       y="246.5"
       transform="matrix(0.7071,0.7071,-0.7071,0.7071,581.2121,-890.4344)"
       class="st11"
       width="35.400002"
       height="19.700001"
       id="rect589"
       style="fill:#ffffff;stroke:#0071bc;stroke-width:2;stroke-miterlimit:10" /><polygon
       class="st11"
       points="1325.7,226.4 1336.2,215.8 1338.3,217.9 1355,234.6 1344.5,245.2 "
       id="polygon591"
       style="fill:#ffffff;stroke:#0071bc;stroke-width:2;stroke-miterlimit:10" /><polygon
       class="st11"
       points="1352.2,231.8 1338.3,217.9 1368.4,197.7 1372.6,201.9 "
       id="polygon593"
       style="fill:#ffffff;stroke:#0071bc;stroke-width:2;stroke-miterlimit:10" /><line
       class="st10"
       x1="1370.4"
       y1="198.89999"
       x2="1377.2"
       y2="192.10001"
       id="line595"
       style="fill:none;stroke:#0071bc;stroke-width:2;stroke-miterlimit:10" /><line
       class="st10"
       x1="1360.3"
       y1="203"
       x2="1366.9"
       y2="209.60001"
       id="line597"
       style="fill:none;stroke:#0071bc;stroke-width:2;stroke-miterlimit:10" /></g></svg>
