<?xml version="1.0" encoding="UTF-8" standalone="no"?>
<svg
   xmlns:dc="http://purl.org/dc/elements/1.1/"
   xmlns:cc="http://creativecommons.org/ns#"
   xmlns:rdf="http://www.w3.org/1999/02/22-rdf-syntax-ns#"
   xmlns:svg="http://www.w3.org/2000/svg"
   xmlns="http://www.w3.org/2000/svg"
   height="761.5"
   width="743.73657"
   xml:space="preserve"
   viewBox="0 0 743.73657 761.5"
   y="0px"
   x="0px"
   id="Layer_1"
   version="1.1"><metadata
     id="metadata603"><rdf:RDF><cc:Work
         rdf:about=""><dc:format>image/svg+xml</dc:format><dc:type
           rdf:resource="http://purl.org/dc/dcmitype/StillImage" /><dc:title></dc:title></cc:Work></rdf:RDF></metadata><defs
     id="defs601" /><style
     id="style3"
     type="text/css">
	.st0{fill:#DFEDF7;}
	.st1{fill:#92C2E2;}
	.st2{fill:#0071BC;}
	.st3{fill:#8CC63F;}
	.st4{fill:#FFFFFF;}
	.st5{font-family:'HelveticaNeue';}
	.st6{font-size:22px;}
	.st7{font-size:27px;}
	.st8{font-family:'HelveticaNeue-Bold';}
	.st9{font-size:32px;}
	.st10{fill:none;stroke:#0071BC;stroke-width:2;stroke-miterlimit:10;}
	.st11{fill:#FFFFFF;stroke:#0071BC;stroke-width:2;stroke-miterlimit:10;}
	.st12{fill:none;stroke:#0071BC;stroke-width:2;stroke-linecap:round;stroke-linejoin:round;stroke-miterlimit:10;}
	.st13{fill:none;stroke:#0071BC;stroke-width:2;stroke-linejoin:round;stroke-miterlimit:10;}
	.st14{fill:none;stroke:#0071BC;stroke-width:4;stroke-miterlimit:10;}
	.st15{fill:#FFFFFF;stroke:#0071BC;stroke-width:2;stroke-linecap:round;stroke-linejoin:round;stroke-miterlimit:10;}
	.st16{fill:none;stroke:#0071BC;stroke-width:2;stroke-linecap:round;stroke-linejoin:round;}
	.st17{fill:none;stroke:#0071BC;stroke-width:2;stroke-linecap:round;stroke-linejoin:round;stroke-dasharray:6.0308,6.0308;}
	.st18{fill:none;stroke:#0071BC;stroke-width:2;stroke-linecap:round;stroke-linejoin:round;stroke-dasharray:5.945,5.945;}
	.st19{fill:none;stroke:#0071BC;stroke-width:2;stroke-linecap:round;stroke-linejoin:round;stroke-dasharray:5.7912,5.7912;}
	.st20{fill:none;stroke:#0071BC;stroke-width:2;stroke-linecap:round;stroke-linejoin:round;stroke-dasharray:6,6;}
	.st21{fill:none;stroke:#0071BC;stroke-width:2;stroke-miterlimit:10;stroke-dasharray:6,6;}
	.st22{font-size:21px;}
	.st23{fill:none;}
	.st24{font-family:'MyriadPro-Regular';}
	.st25{font-family:'MyriadPro-Bold';}
</style><g
     transform="translate(-47.4,10)"
     id="g5"><path
       style="fill:#dfedf7"
       id="path7"
       d="M 712.6,286 735.1,247.5 712.6,209 671.1,209 595.1,79.8 615.8,41.5 593.3,0 548.2,0 527.5,40 375.5,40 354.7,0 309.6,0 287.1,42.7 307.9,78 l -76,131 -41.5,0 -22.5,38.5 22.5,38.5 41.5,0 76,134.7 -20.7,36.6 22.5,39.7 45.1,0 20.7,-40 152,0 20.7,40 45.1,0 22.5,-38.2 -20.7,-38.5 76,-134.3 41.5,0 z m -65.8,-39 -152,0 -19,-33.6 76,-132.4 37.9,0 76,132.4 -18.9,33.6 z M 546.5,77.1 l -76,131.9 -37.9,0 -76,-131.9 19,-33.1 152,0 18.9,33.1 z m -195.4,3.9 76,132.4 -19,33.6 -152,0 -19,-33.6 76,-132.4 38,0 z m -94.9,173 152,0 19,32.1 -76,130.9 -37.9,0 -76,-130.9 18.9,-32.1 z m 100.3,163.9 76,-131.9 37.9,0 76,131.9 -19,33.1 -152,0 -18.9,-33.1 z m 195.3,-0.9 -76,-130.9 19,-32.1 152,0 19,32.1 -76,130.9 -38,0 z"
       class="st0" /><path
       style="fill:#92c2e2"
       id="path9"
       d="m 604.1,270 13.2,-22.5 -13.2,-22.5 -24.2,0 -44.4,-75.2 12.1,-22.5 -13.2,-24.3 -26.4,0 -12.1,23 -88.8,0 -12.1,-23 -26.3,0 -13.2,25.2 12.1,20.4 -44.5,76.4 -24.2,0 -13.2,22.5 13.2,22.5 24.2,0 44.4,79 -12.1,21.1 13.2,22.9 26.3,0 12.1,-22 88.8,0 12.1,22 26.3,0 13.2,-21.9 -12.1,-22.6 44.4,-78.5 24.4,0 z m -38.5,-22 -88.8,0 -11.1,-19.6 44.4,-77.4 22.2,0 44.4,77.4 -11.1,19.6 z M 507,147.6 462.6,225 440.4,225 396,147.6 407.1,128 l 88.8,0 11.1,19.6 z m -114.1,3.4 44.4,77.4 -11.1,19.6 -88.8,0 -11.1,-19.6 44.4,-77.4 22.2,0 z m -55.5,100 88.8,0 11.1,19.1 -44.4,76.9 -22.2,0 -44.4,-76.9 11.1,-19.1 z m 58.6,96.4 44.4,-77.4 22.2,0 44.4,77.4 -11.1,19.6 -88.8,0 -11.1,-19.6 z m 114.1,-0.4 -44.4,-76.9 11.1,-19.1 88.8,0 11.1,19.1 -44.4,76.9 -22.2,0 z"
       class="st1" /><g
       id="g11"><path
         style="fill:#0071bc"
         id="path13"
         d="m 57.4,308 46.1,0 0,59.2 -7.9,0 0,-52.5 -30.3,0 0,52.5 -7.9,0 0,-59.2 z"
         class="st2" /><path
         style="fill:#0071bc"
         id="path15"
         d="m 109.7,324.3 7,0 0,5.8 0.2,0 c 1.2,-2.4 3,-4.1 5.5,-5.2 2.5,-1.1 5.2,-1.6 8.2,-1.6 3.3,0 6.2,0.6 8.7,1.8 2.5,1.2 4.5,2.9 6.1,4.9 1.6,2.1 2.9,4.5 3.7,7.2 0.8,2.7 1.2,5.6 1.2,8.6 0,3.1 -0.4,6 -1.2,8.7 -0.8,2.7 -2,5 -3.6,7 -1.6,2 -3.7,3.6 -6.1,4.8 -2.5,1.2 -5.3,1.7 -8.6,1.7 -1.1,0 -2.3,-0.1 -3.6,-0.3 -1.3,-0.2 -2.5,-0.6 -3.8,-1.1 -1.3,-0.5 -2.5,-1.2 -3.6,-2 -1.1,-0.9 -2.1,-1.9 -2.9,-3.2 l -0.2,0 0,22 -7,0 0,-59.1 z m 20.3,37.6 c 2.4,0 4.4,-0.5 6,-1.4 1.7,-0.9 3,-2.2 4,-3.7 1,-1.5 1.7,-3.3 2.2,-5.3 0.4,-2 0.7,-4 0.7,-6.1 0,-2 -0.3,-3.9 -0.8,-5.8 -0.5,-1.9 -1.3,-3.6 -2.4,-5.1 -1.1,-1.5 -2.5,-2.7 -4.1,-3.6 -1.7,-0.9 -3.7,-1.3 -5.9,-1.3 -2.4,0 -4.4,0.5 -6,1.4 -1.7,0.9 -3,2.2 -4.1,3.7 -1,1.5 -1.8,3.2 -2.3,5.2 -0.5,1.9 -0.7,3.9 -0.7,5.9 0,2.1 0.2,4.1 0.7,6.1 0.5,2 1.3,3.7 2.4,5.2 1.1,1.5 2.5,2.7 4.2,3.6 1.6,0.7 3.7,1.2 6.1,1.2 z"
         class="st2" /><path
         style="fill:#0071bc"
         id="path17"
         d="m 174.2,368 c -3.4,0 -6.4,-0.6 -9,-1.7 -2.6,-1.1 -4.7,-2.7 -6.5,-4.7 -1.8,-2 -3.1,-4.4 -4,-7.1 -0.9,-2.7 -1.3,-5.6 -1.3,-8.8 0,-3.1 0.4,-6.1 1.3,-8.8 0.9,-2.7 2.2,-5.1 4,-7.1 1.8,-2 3.9,-3.6 6.5,-4.8 2.6,-1.2 5.6,-1.7 9,-1.7 3.4,0 6.4,0.6 8.9,1.7 2.6,1.2 4.8,2.7 6.5,4.8 1.8,2 3.1,4.4 4,7.1 0.9,2.7 1.3,5.7 1.3,8.8 0,3.1 -0.4,6.1 -1.3,8.8 -0.9,2.7 -2.2,5.1 -4,7.1 -1.8,2 -3.9,3.6 -6.5,4.7 -2.6,1.2 -5.6,1.7 -8.9,1.7 z m 0,-6.1 c 1.8,0 3.5,-0.4 5.2,-1.1 1.6,-0.7 3.1,-1.8 4.3,-3.1 1.2,-1.4 2.2,-3 2.9,-5.1 0.7,-2 1,-4.3 1,-6.9 0,-2.6 -0.3,-4.9 -1,-6.9 -0.7,-2 -1.6,-3.7 -2.9,-5.1 -1.2,-1.4 -2.6,-2.4 -4.3,-3.1 -1.6,-0.7 -3.4,-1.1 -5.2,-1.1 -1.8,0 -3.5,0.4 -5.2,1.1 -1.6,0.7 -3.1,1.8 -4.3,3.1 -1.2,1.4 -2.2,3.1 -2.9,5.1 -0.7,2 -1,4.3 -1,6.9 0,2.6 0.3,4.9 1,6.9 0.7,2 1.6,3.7 2.9,5.1 1.2,1.4 2.6,2.4 4.3,3.1 1.6,0.7 3.3,1.1 5.2,1.1 z"
         class="st2" /><path
         style="fill:#0071bc"
         id="path19"
         d="m 218.7,368 c -3.4,0 -6.4,-0.6 -9,-1.7 -2.6,-1.1 -4.7,-2.7 -6.4,-4.6 -1.7,-2 -3,-4.4 -3.9,-7.1 -0.9,-2.8 -1.3,-5.8 -1.3,-9 0,-3.2 0.5,-6.2 1.5,-8.9 1,-2.7 2.4,-5.1 4.2,-7.1 1.8,-2 3.9,-3.5 6.4,-4.6 2.5,-1.1 5.1,-1.7 8.1,-1.7 3.8,0 7,0.8 9.5,2.4 2.5,1.6 4.5,3.6 6,6 1.5,2.4 2.6,5.1 3.1,8 0.6,2.9 0.8,5.6 0.7,8.2 l -32.1,0 c -0.1,1.9 0.2,3.7 0.7,5.3 0.5,1.7 1.3,3.2 2.4,4.5 1.1,1.3 2.5,2.3 4.2,3.1 1.7,0.8 3.7,1.2 6,1.2 3,0 5.4,-0.7 7.3,-2.1 1.9,-1.4 3.2,-3.5 3.8,-6.3 l 7,0 c -0.9,4.9 -3,8.5 -6.2,10.9 -3.1,2.3 -7.1,3.5 -12,3.5 z m 11.5,-26.4 c -0.1,-1.7 -0.5,-3.2 -1.1,-4.7 -0.6,-1.5 -1.5,-2.8 -2.6,-3.9 -1.1,-1.1 -2.3,-1.9 -3.8,-2.6 -1.5,-0.6 -3.1,-1 -4.8,-1 -1.8,0 -3.5,0.3 -4.9,1 -1.5,0.6 -2.7,1.5 -3.8,2.6 -1,1.1 -1.9,2.4 -2.5,3.9 -0.6,1.5 -1,3 -1.1,4.7 l 24.6,0 z"
         class="st2" /><path
         style="fill:#0071bc"
         id="path21"
         d="m 241.4,324.3 7,0 0,20.5 19.6,-20.5 9.4,0 -19,18.6 21.2,24.3 -9,0 -17.9,-20.4 -4.3,4.2 0,16.2 -7,0 0,-42.9 z"
         class="st2" /><path
         style="fill:#0071bc"
         id="path23"
         d="m 293.3,330.5 -15.3,0 0,-6.2 37.7,0 0,6.2 -15.3,0 0,36.6 -7,0 0,-36.6 z"
         class="st2" /><path
         style="fill:#0071bc"
         id="path25"
         d="m 373.3,286.5 18.2,0 30.2,80.7 -18.4,0 -6.1,-18 -30.2,0 -6.3,18 -17.9,0 30.5,-80.7 z m 19.2,49.4 -10.2,-29.6 -0.2,0 -10.5,29.6 20.9,0 z"
         class="st2" /><path
         style="fill:#0071bc"
         id="path27"
         d="m 423,308.7 16,0 0,21.2 22.7,0 0,-21.2 16,0 0,58.4 -16,0 0,-24.5 -22.7,0 0,24.5 -16,0 0,-58.4 z"
         class="st2" /><path
         style="fill:#0071bc"
         id="path29"
         d="m 522.2,368.9 c -6.3,0 -11.8,-1.1 -16.7,-3.2 -4.9,-2.1 -9,-5.1 -12.4,-8.9 -3.4,-3.8 -6,-8.2 -7.8,-13.3 -1.8,-5.1 -2.7,-10.6 -2.7,-16.4 0,-5.9 0.9,-11.5 2.7,-16.7 1.8,-5.2 4.4,-9.7 7.8,-13.6 3.4,-3.8 7.5,-6.9 12.4,-9 4.9,-2.2 10.5,-3.3 16.7,-3.3 4.4,0 8.5,0.6 12.5,1.9 4,1.3 7.6,3.1 10.7,5.6 3.1,2.4 5.7,5.5 7.7,9.1 2,3.6 3.3,7.8 3.8,12.4 l -17.2,0 c -0.3,-2 -1,-3.9 -2,-5.6 -1.1,-1.7 -2.4,-3.2 -4,-4.5 -1.6,-1.3 -3.4,-2.3 -5.4,-3 -2,-0.7 -4.1,-1.1 -6.3,-1.1 -4,0 -7.4,0.8 -10.2,2.3 -2.8,1.5 -5,3.6 -6.8,6.2 -1.7,2.6 -3,5.6 -3.8,8.9 -0.8,3.3 -1.2,6.7 -1.2,10.3 0,3.4 0.4,6.7 1.2,9.9 0.8,3.2 2.1,6.1 3.8,8.6 1.7,2.6 4,4.6 6.8,6.2 2.8,1.5 6.2,2.3 10.2,2.3 5.4,0 9.7,-1.7 12.7,-5 3.1,-3.3 4.9,-7.7 5.6,-13.1 l 17.2,0 c -0.5,5.1 -1.6,9.7 -3.5,13.7 -1.9,4 -4.4,7.5 -7.5,10.3 -3.1,2.9 -6.7,5 -10.8,6.6 -4,1.7 -8.5,2.4 -13.5,2.4 z"
         class="st2" /><path
         style="fill:#0071bc"
         id="path31"
         d="m 578.7,368.6 c -2.8,0 -5.4,-0.3 -7.8,-1 -2.4,-0.7 -4.5,-1.7 -6.3,-3.2 -1.8,-1.4 -3.2,-3.2 -4.2,-5.4 -1,-2.2 -1.5,-4.8 -1.5,-7.8 0,-3.3 0.6,-6 1.8,-8.2 1.2,-2.1 2.7,-3.9 4.5,-5.1 1.8,-1.3 4,-2.2 6.3,-2.9 2.4,-0.6 4.8,-1.1 7.2,-1.5 2.4,-0.4 4.8,-0.7 7.1,-0.9 2.3,-0.2 4.4,-0.6 6.2,-1 1.8,-0.5 3.2,-1.1 4.3,-2 1.1,-0.9 1.5,-2.1 1.5,-3.8 0,-1.7 -0.3,-3 -0.8,-4.1 -0.6,-1.1 -1.3,-1.9 -2.3,-2.4 -0.9,-0.6 -2,-0.9 -3.3,-1.1 -1.2,-0.2 -2.6,-0.3 -4,-0.3 -3.2,0 -5.6,0.7 -7.5,2 -1.8,1.4 -2.9,3.6 -3.2,6.8 l -16,0 c 0.2,-3.7 1.2,-6.8 2.8,-9.3 1.7,-2.5 3.8,-4.5 6.3,-6 2.6,-1.5 5.4,-2.6 8.6,-3.2 3.2,-0.6 6.4,-1 9.7,-1 2.9,0 5.9,0.2 8.9,0.6 3,0.4 5.8,1.2 8.2,2.4 2.5,1.2 4.5,2.9 6.1,5.1 1.6,2.2 2.4,5 2.4,8.5 l 0,30.4 c 0,2.6 0.1,5.2 0.5,7.6 0.3,2.4 0.8,4.2 1.6,5.4 l -16.3,0 c -0.3,-0.9 -0.5,-1.8 -0.7,-2.8 -0.2,-0.9 -0.3,-1.9 -0.4,-2.9 -2.6,2.6 -5.6,4.5 -9,5.5 -3.6,1.1 -7.1,1.6 -10.7,1.6 z m 6,-10.6 c 3.2,0 5.6,-0.5 7.3,-1.6 1.7,-1.1 3,-2.3 3.8,-3.8 0.8,-1.5 1.3,-3 1.5,-4.5 0.2,-1.5 0.3,-2.7 0.3,-3.6 l 0,-6 c -0.7,0.6 -1.5,1.1 -2.5,1.4 -1,0.3 -2.1,0.6 -3.3,0.8 -1.2,0.2 -2.4,0.4 -3.7,0.6 -1.3,0.2 -2.6,0.3 -3.8,0.6 -1.3,0.2 -2.5,0.5 -3.6,0.9 -1.1,0.4 -2.1,0.9 -3,1.5 -0.9,0.6 -1.6,1.5 -2.1,2.4 -0.5,1 -0.8,2.2 -0.8,3.7 0,1.5 0.3,2.7 0.8,3.7 0.5,0.9 1.2,1.7 2.1,2.3 0.9,0.6 2,1 3.2,1.2 1.3,0.3 2.5,0.4 3.8,0.4 z"
         class="st2" /><path
         style="fill:#0071bc"
         id="path33"
         d="m 636.4,320.8 -19.2,0 0,-12.1 54.5,0 0,12.1 -19.2,0 0,46.3 -16,0 0,-46.3 z"
         class="st2" /></g><path
       style="fill:#0071bc"
       id="path35"
       d="m 468.9,295 -3.8,-7 -26.9,0 -3.8,7 -9.4,0 -4.6,-5.4 3.8,-8.1 -13.5,-24.5 -7.6,0 -4.6,-8 4.6,-8 7.6,0 13.5,-20.7 -3.8,-8 4.6,-9.3 9.3,0 3.8,7 26.9,0 3.8,-7 9.3,0 4.6,10.7 -3.8,5.2 13.5,22.1 7.6,0 4.6,8 -4.6,8 -7.6,0 -13.4,26.1 3.8,5.1 -4.6,6.8 -9.3,0 z m -3.8,-9 3,-5.4 -13.5,-23.6 -6,0 -13.5,23.6 3,5.4 27,0 z m 11.4,-7 13.5,-23.6 -3,-5.4 -27,0 -3,5.4 13.5,23.6 6,0 z m -43.8,0 13.5,-23.6 -3,-5.4 -27,0 -3,5.4 13.5,23.6 6,0 z m 54.3,-31 3,-5.4 -13.5,-23.6 -6,0 -13.5,23.6 3,5.4 27,0 z m -43.8,0 3,-5.4 -13.5,-23.6 -6,0 -13.5,23.6 3,5.4 27,0 z m 11.4,-7 13.5,-23.1 -3,-4.9 -27,0 -3,4.9 13.5,23.1 6,0 z"
       class="st2" /></g><rect
     style="fill:none"
     id="rect437"
     height="335.89999"
     width="661.40002"
     class="st23"
     y="415.60001"
     x="11.199999" /><text
     y="424.75449"
     x="11.236101"
     id="text439"
     style="font-style:normal;font-variant:normal;font-weight:normal;font-stretch:normal;font-size:27px;line-height:125%;font-family:MyriadPro-Bold;-inkscape-font-specification:'MyriadPro-Bold, Normal';text-align:start;writing-mode:lr-tb;text-anchor:start;fill:#0071bc"><tspan
       id="tspan4185"
       x="11.236101"
       y="424.75449">ПОДДЕРЖКА ПРОЕКТА:</tspan><tspan
       id="tspan4187"
       x="11.236101"
       y="458.50449">Федеральное космическое агентство РОСКОСМОС</tspan><tspan
       id="tspan4189"
       x="11.236101"
       y="492.25449">Федерация космонавтики РФ</tspan><tspan
       id="tspan4191"
       x="11.236101"
       y="526.00452">КБ «Арсенал» им. М.Ф.Фрунзе</tspan><tspan
       id="tspan4193"
       x="11.236101"
       y="559.75452">АО «НПП «Радар ммс»</tspan><tspan
       id="tspan4195"
       x="11.236101"
       y="593.50452">Политехнический университет Петра Великого</tspan><tspan
       id="tspan4197"
       x="11.236101"
       y="627.25452">БГТУ «Военмех» им. Д.Ф.Устинова</tspan><tspan
       id="tspan4199"
       x="11.236101"
       y="661.00452">СПбГУАП</tspan><tspan
       id="tspan4201"
       x="11.236101"
       y="694.75452">СПИИРАН</tspan><tspan
       id="tspan4203"
       x="11.236101"
       y="728.50452">СКАНЭКС</tspan></text>
</svg>